<?xml version="1.0" encoding="UTF-8"?>
<svg xmlns="http://www.w3.org/2000/svg" width="222" height="26" viewBox="0 0 222 26" fill="none">
  <path d="M17.08 20H13.198V12.3716H4.64661V20H0.791713V1.89284H4.64661V9.0054H13.198V1.89284H17.08V20ZM22.2772 5.47626C21.7162 5.47626 21.2366 5.27718 20.8384 4.87903C20.4403 4.46277 20.2412 3.97412 20.2412 3.41308C20.2412 2.85204 20.4403 2.37244 20.8384 1.97428C21.2366 1.57612 21.7162 1.37704 22.2772 1.37704C22.8564 1.37704 23.345 1.57612 23.7432 1.97428C24.1413 2.37244 24.3404 2.85204 24.3404 3.41308C24.3404 3.97412 24.1413 4.46277 23.7432 4.87903C23.345 5.27718 22.8564 5.47626 22.2772 5.47626ZM24.0146 20H20.5669V6.88792H24.0146V20ZM30.881 20H27.4333V1.89284H30.881V20ZM37.7473 20H34.2996V1.89284H37.7473V20ZM47.274 20.3258C45.2651 20.3258 43.6001 19.6833 42.279 18.3983C40.9759 17.0953 40.3244 15.4393 40.3244 13.4304C40.3244 11.4215 40.9759 9.77457 42.279 8.4896C43.6001 7.20463 45.2651 6.56215 47.274 6.56215C49.5906 6.56215 51.319 7.34942 52.4591 8.92395L50.2059 11.0414C49.5725 10.1003 48.6495 9.62978 47.4369 9.62978C46.3872 9.62978 45.5276 9.98269 44.8579 10.6885C44.2064 11.3762 43.8806 12.2902 43.8806 13.4304C43.8806 14.5706 44.2064 15.4936 44.8579 16.1994C45.5276 16.9052 46.3872 17.2581 47.4369 17.2581C48.6133 17.2581 49.5363 16.7785 50.2059 15.8193L52.4591 17.9368C51.3009 19.5294 49.5725 20.3258 47.274 20.3258ZM65.8433 18.344C64.5765 19.6652 62.8933 20.3258 60.794 20.3258C58.6946 20.3258 57.0115 19.6652 55.7446 18.344C54.4958 17.0048 53.8714 15.3669 53.8714 13.4304C53.8714 11.4939 54.4958 9.86506 55.7446 8.54389C57.0115 7.22273 58.6946 6.56215 60.794 6.56215C62.8933 6.56215 64.5765 7.22273 65.8433 8.54389C67.1102 9.86506 67.7436 11.4939 67.7436 13.4304C67.7436 15.3669 67.1102 17.0048 65.8433 18.344ZM60.794 17.2581C61.8436 17.2581 62.6671 16.8962 63.2644 16.1722C63.8616 15.4302 64.1602 14.5163 64.1602 13.4304C64.1602 12.3626 63.8616 11.4667 63.2644 10.7428C62.6671 10.0008 61.8436 9.62978 60.794 9.62978C59.7624 9.62978 58.948 10.0008 58.3507 10.7428C57.7535 11.4667 57.4549 12.3626 57.4549 13.4304C57.4549 14.5163 57.7535 15.4302 58.3507 16.1722C58.948 16.8962 59.7624 17.2581 60.794 17.2581ZM82.6527 20H79.1779V12.073C79.1779 10.4442 78.3725 9.62978 76.7618 9.62978C75.5673 9.62978 74.5719 10.1365 73.7756 11.15V20H70.3279V6.88792H73.7756V8.57104C74.2462 8.01 74.8796 7.53945 75.6759 7.15939C76.4903 6.76123 77.3862 6.56215 78.3635 6.56215C79.7751 6.56215 80.8429 6.93316 81.5668 7.67518C82.2908 8.41721 82.6527 9.43975 82.6527 10.7428V20ZM98.3737 20H94.8989V12.073C94.8989 10.4442 94.0935 9.62978 92.4828 9.62978C91.2883 9.62978 90.2929 10.1365 89.4966 11.15V20H86.0489V6.88792H89.4966V8.57104C89.9671 8.01 90.6006 7.53945 91.3969 7.15939C92.2113 6.76123 93.1071 6.56215 94.0844 6.56215C95.4961 6.56215 96.5639 6.93316 97.2878 7.67518C98.0117 8.41721 98.3737 9.43975 98.3737 10.7428V20ZM122.883 20.3258C120.874 20.3258 119.209 19.6833 117.888 18.3983C116.585 17.0953 115.933 15.4393 115.933 13.4304C115.933 11.4215 116.585 9.77457 117.888 8.4896C119.209 7.20463 120.874 6.56215 122.883 6.56215C125.2 6.56215 126.928 7.34942 128.068 8.92395L125.815 11.0414C125.182 10.1003 124.259 9.62978 123.046 9.62978C121.996 9.62978 121.137 9.98269 120.467 10.6885C119.816 11.3762 119.49 12.2902 119.49 13.4304C119.49 14.5706 119.816 15.4936 120.467 16.1994C121.137 16.9052 121.996 17.2581 123.046 17.2581C124.222 17.2581 125.145 16.7785 125.815 15.8193L128.068 17.9368C126.91 19.5294 125.182 20.3258 122.883 20.3258ZM134.72 20.3258C132.259 20.3258 131.028 19.1222 131.028 16.7152V9.90125H128.856V6.88792H131.028V3.30449H134.476V6.88792H137.136V9.90125H134.476V15.7922C134.476 16.2265 134.575 16.5795 134.774 16.8509C134.991 17.1224 135.29 17.2581 135.67 17.2581C136.231 17.2581 136.629 17.1224 136.865 16.8509L137.598 19.4842C136.964 20.0452 136.005 20.3258 134.72 20.3258ZM156.366 20.1357C159.325 20.1357 162.067 19.2127 163.858 17.6925V10.0641H155.904V12.2088H161.497V16.3623C160.058 17.4482 158.293 17.964 156.366 17.964C152.049 17.964 149.199 14.7606 149.199 10.3899C149.199 5.77488 152.212 2.78869 156.257 2.78869C158.51 2.78869 160.411 3.52167 161.958 5.01476L163.614 3.54882C161.578 1.43134 158.918 0.53548 156.284 0.53548C150.475 0.53548 146.729 4.66185 146.729 10.3899C146.729 16.3623 150.828 20.1357 156.366 20.1357ZM167.843 6.77933V20H170.042V13.6204C170.042 10.96 171.535 9.03254 174.06 9.03254C174.277 9.03254 174.603 9.05969 174.929 9.08684V6.64359C174.739 6.61644 174.576 6.61644 174.386 6.61644C172.567 6.61644 171.047 7.59374 170.097 9.19543H170.042V6.77933H167.843ZM182.989 20.1629C186.898 20.1629 189.803 17.421 189.803 13.4032C189.803 9.38546 186.898 6.61644 182.989 6.61644C178.89 6.61644 176.148 9.60263 176.148 13.4032C176.148 17.2038 178.89 20.1629 182.989 20.1629ZM182.989 18.154C180.247 18.154 178.401 16.0365 178.401 13.4032C178.401 10.77 180.22 8.62534 182.989 8.62534C185.541 8.62534 187.55 10.5799 187.55 13.4032C187.55 16.2265 185.514 18.154 182.989 18.154ZM197.751 20.1629C199.488 20.1629 201.117 19.2942 202.122 17.7196H202.149V20H204.348V6.77933H202.149V13.1861C202.149 16.3351 200.33 18.154 198.213 18.154C196.122 18.154 194.982 17.0138 194.982 14.0276V6.77933H192.783V14.652C192.783 18.4255 194.711 20.1629 197.751 20.1629ZM208.325 6.77933V25.3751H210.524V17.7196H210.552C211.529 19.2399 213.158 20.1629 215.248 20.1629C218.886 20.1629 221.682 17.5025 221.682 13.4847C221.682 9.57549 218.994 6.61644 215.248 6.61644C213.239 6.61644 211.556 7.53945 210.552 9.11398H210.524V6.77933H208.325ZM214.949 18.154C212.425 18.154 210.416 16.2808 210.416 13.4847C210.416 10.77 212.235 8.62534 214.922 8.62534C217.42 8.62534 219.456 10.5528 219.456 13.4847C219.456 16.1451 217.61 18.154 214.949 18.154Z" fill="black"></path>
  <path d="M107.932 20.3258C105.905 20.3258 104.231 19.6923 102.91 18.4255C101.589 17.1586 100.928 15.4936 100.928 13.4304C100.928 11.512 101.571 9.8922 102.856 8.57104C104.141 7.23178 105.76 6.56215 107.715 6.56215C109.67 6.56215 111.253 7.23178 112.466 8.57104C113.678 9.8922 114.285 11.6206 114.285 13.7562V14.5706H104.539C104.666 15.4212 105.055 16.127 105.706 16.688C106.376 17.231 107.245 17.5025 108.312 17.5025C108.91 17.5025 109.534 17.3939 110.185 17.1767C110.855 16.9414 111.389 16.6247 111.787 16.2265L113.335 18.5069C112.013 19.7195 110.213 20.3258 107.932 20.3258ZM110.973 12.1816C110.9 11.4396 110.593 10.7881 110.05 10.227C109.525 9.66598 108.747 9.38546 107.715 9.38546C106.72 9.38546 105.951 9.66598 105.408 10.227C104.883 10.77 104.584 11.4215 104.512 12.1816H110.973Z" fill="#FF302F"></path>
</svg>
